<svg width="121" height="23" viewBox="0 0 121 23" fill="none" xmlns="http://www.w3.org/2000/svg">
<path fill-rule="evenodd" clip-rule="evenodd" d="M10.8666 7.32634L11.3734 6.88852L12.2306 6.14801V1.17833C12.2306 0.527631 11.6198 0 10.8666 0C10.1133 0 9.50256 0.527631 9.50256 1.17833V6.14801L10.3598 6.88852L10.8666 7.32634ZM10.8666 13.4316L10.3598 13.8694L9.50256 14.61V19.5796C9.50256 20.2303 10.1133 20.758 10.8666 20.758C11.6198 20.758 12.2306 20.2303 12.2306 19.5796V14.61L11.3734 13.8694L10.8666 13.4316ZM15.1885 8.95441H20.1849C20.8391 8.95441 21.3696 9.56193 21.3696 10.3111C21.3696 11.0604 20.8391 11.6679 20.1849 11.6679H15.1885L14.4437 10.8152L14.0038 10.3111L14.4437 9.80704L15.1885 8.95441ZM7.86573 10.3111L7.42556 9.80704L6.68106 8.95441H1.68467C1.03047 8.95441 0.5 9.56193 0.5 10.3111C0.5 11.0604 1.03047 11.6679 1.68467 11.6679H6.68106L7.42556 10.8152L7.86573 10.3111ZM8.63502 10.9895L10.321 12.6664L9.87803 13.107L5.2631 17.6972C5.03024 17.9288 4.72532 18.0445 4.42013 18.0445C4.26753 18.0445 4.1152 18.0155 3.97162 17.9575C3.82803 17.8998 3.69371 17.8129 3.57715 17.6972C3.11168 17.2342 3.11168 16.4833 3.57715 16.0203L8.19207 11.4301L8.63502 10.9895ZM11.5486 8.09153L13.2345 9.76845L13.6775 9.32788L18.2924 4.73768C18.7579 4.27471 18.7579 3.52399 18.2924 3.06075C18.1759 2.94508 18.0415 2.85812 17.8979 2.80041C17.7546 2.74244 17.602 2.71346 17.4494 2.71346C17.1443 2.71346 16.8393 2.82914 16.6065 3.06075L11.9915 7.65095L11.5486 8.09153ZM10.662 8.45966L12.3188 10.1076L13.4903 11.2729L18.0255 15.7839C18.4831 16.2391 18.4831 16.9769 18.0255 17.4319C17.7969 17.6595 17.497 17.7732 17.197 17.7732C16.8974 17.7732 16.5975 17.6595 16.3686 17.4319L11.8335 12.9209L10.662 11.7556L9.00517 10.1076L7.83364 8.94235L3.2985 4.43139C2.84082 3.97615 2.84082 3.23839 3.2985 2.78341C3.35552 2.72644 3.41722 2.67672 3.4823 2.634C3.61221 2.5488 3.7554 2.49183 3.90301 2.46335C3.97695 2.4491 4.05193 2.44211 4.12691 2.44211C4.42656 2.44211 4.72647 2.55579 4.95531 2.78341L9.49045 7.29437L10.662 8.45966ZM27.3323 1.50062H30.5802L40.5594 13.4767V1.50062H43.8073V17.5711H40.5594V17.4056L30.5802 4.98616V17.5711H27.3323V1.50062ZM45.6651 13.7463C45.6651 13.1637 45.7914 12.6324 46.0442 12.1526C46.2969 11.6728 46.676 11.2598 47.1814 10.9136C47.6869 10.5675 48.317 10.3002 49.0717 10.1117C49.8265 9.92316 50.7059 9.82891 51.71 9.82891C52.4545 9.82891 53.2383 9.88375 54.0614 9.99342C54.8844 10.1031 55.7331 10.271 56.6074 10.4972C56.5732 10.1134 56.4571 9.75865 56.259 9.43306C56.061 9.10747 55.786 8.82643 55.4343 8.58995C55.0825 8.35347 54.659 8.17011 54.1638 8.03987C53.6686 7.90963 53.1068 7.84452 52.4784 7.84452C52.1369 7.84452 51.7612 7.86508 51.3514 7.90621C50.9416 7.94733 50.5181 8.00902 50.0809 8.09128C49.6438 8.17353 49.2118 8.27635 48.7849 8.39973C48.358 8.52312 47.9601 8.67049 47.5913 8.84185L46.6691 6.34337C47.1268 6.17886 47.6169 6.02806 48.1394 5.89097C48.6619 5.75388 49.1964 5.63563 49.7428 5.53624C50.2893 5.43685 50.8357 5.35974 51.3821 5.3049C51.9286 5.25007 52.4579 5.22265 52.9702 5.22265C55.2311 5.22265 56.9114 5.80186 58.0111 6.96028C59.1107 8.1187 59.6606 9.89403 59.6606 12.2863V17.5711H56.6279V16.4298C56.3137 16.6149 55.9705 16.7897 55.5982 16.9542C55.2259 17.1187 54.8212 17.2627 54.3841 17.3861C53.947 17.5094 53.4774 17.6071 52.9753 17.6791C52.4733 17.7511 51.9422 17.787 51.3821 17.787C50.4395 17.787 49.6114 17.6842 48.8976 17.4786C48.1838 17.273 47.5878 16.9885 47.1097 16.6252C46.6316 16.2619 46.2713 15.8352 46.0288 15.3451C45.7863 14.855 45.6651 14.3221 45.6651 13.7463ZM48.8617 13.6435C48.8617 13.8423 48.9129 14.0325 49.0154 14.2141C49.1179 14.3958 49.2818 14.5568 49.5072 14.6974C49.7326 14.8379 50.0212 14.951 50.3729 15.0367C50.7247 15.1223 51.1499 15.1652 51.6485 15.1652C52.1813 15.1652 52.697 15.1172 53.1956 15.0212C53.6942 14.9253 54.1587 14.7985 54.589 14.6408C55.0193 14.4832 55.4087 14.3015 55.757 14.0959C56.1054 13.8902 56.3957 13.6777 56.6279 13.4584V12.9237C56.1634 12.7935 55.7041 12.6838 55.2499 12.5947C54.7956 12.5056 54.3619 12.4354 53.9487 12.3839C53.5354 12.3325 53.1461 12.2965 52.7807 12.276C52.4152 12.2554 52.0959 12.2451 51.8227 12.2451C51.2558 12.2451 50.7845 12.2828 50.4088 12.3582C50.0331 12.4336 49.7292 12.5347 49.4969 12.6616C49.2647 12.7884 49.1008 12.9375 49.0051 13.1088C48.9095 13.2802 48.8617 13.4584 48.8617 13.6435ZM62.8105 19.0928C63.1247 19.2985 63.4662 19.4801 63.8351 19.6378C64.2039 19.7954 64.5881 19.9257 64.9877 20.0285C65.3873 20.1313 65.7954 20.2084 66.212 20.2598C66.6287 20.3112 67.0419 20.3369 67.4518 20.3369C68.8452 20.3369 69.9193 20.0371 70.674 19.4373C71.4288 18.8375 71.8062 17.9378 71.8062 16.7383V16.327C71.5398 16.5121 71.2409 16.6818 70.9097 16.836C70.5784 16.9902 70.2232 17.1222 69.8441 17.2318C69.465 17.3415 69.0654 17.4255 68.6454 17.4837C68.2253 17.542 67.8001 17.5711 67.3698 17.5711C66.4477 17.5711 65.6229 17.4358 64.8955 17.165C64.168 16.8942 63.5533 16.4967 63.0513 15.9723C62.5492 15.4479 62.165 14.8019 61.8986 14.0342C61.6322 13.2665 61.4991 12.3891 61.4991 11.402V5.43857H64.5215V10.5589C64.5215 12.0258 64.7999 13.1071 65.3565 13.8028C65.9132 14.4986 66.7926 14.8464 67.9948 14.8464C68.8418 14.8464 69.5914 14.6974 70.2437 14.3992C70.896 14.101 71.4168 13.7189 71.8062 13.2528V5.43857H74.8389V16.1831C74.8389 17.3415 74.6749 18.3474 74.3471 19.2008C74.0192 20.0542 73.5428 20.7619 72.9178 21.324C72.2928 21.8861 71.5261 22.3059 70.6177 22.5835C69.7092 22.8611 68.6778 22.9999 67.5235 22.9999C66.3965 22.9999 65.3446 22.88 64.3678 22.6401C63.3911 22.4002 62.4963 22.0746 61.6835 21.6633L62.8105 19.0928ZM77.259 7.9679H83.4576L76.05 17.5711H88.6727V15.0418H81.6237L89.0825 5.43857H77.259V7.9679ZM90.8561 12.1526C90.6033 12.6324 90.477 13.1637 90.477 13.7463C90.477 14.3221 90.5982 14.855 90.8407 15.3451C91.0832 15.8352 91.4435 16.2619 91.9216 16.6252C92.3997 16.9885 92.9957 17.273 93.7095 17.4786C94.4232 17.6842 95.2514 17.787 96.194 17.787C96.7541 17.787 97.2852 17.7511 97.7872 17.6791C98.2893 17.6071 98.7589 17.5094 99.196 17.3861C99.6331 17.2627 100.038 17.1187 100.41 16.9542C100.782 16.7897 101.126 16.6149 101.44 16.4298V17.5711H104.472V12.2863C104.472 9.89403 103.923 8.1187 102.823 6.96028C101.723 5.80186 100.043 5.22265 97.7821 5.22265C97.2698 5.22265 96.7405 5.25007 96.194 5.3049C95.6476 5.35974 95.1012 5.43685 94.5547 5.53624C94.0083 5.63563 93.4738 5.75388 92.9513 5.89097C92.4288 6.02806 91.9387 6.17886 91.481 6.34337L92.4032 8.84185C92.772 8.67049 93.1699 8.52312 93.5968 8.39973C94.0237 8.27635 94.4557 8.17353 94.8928 8.09128C95.33 8.00902 95.7535 7.94733 96.1633 7.90621C96.5731 7.86508 96.9488 7.84452 97.2903 7.84452C97.9187 7.84452 98.4805 7.90963 98.9757 8.03987C99.4709 8.17011 99.8944 8.35347 100.246 8.58995C100.598 8.82643 100.873 9.10747 101.071 9.43306C101.269 9.75865 101.385 10.1134 101.419 10.4972C100.545 10.271 99.6963 10.1031 98.8733 9.99342C98.0502 9.88375 97.2664 9.82891 96.5219 9.82891C95.5178 9.82891 94.6384 9.92316 93.8836 10.1117C93.1289 10.3002 92.4988 10.5675 91.9933 10.9136C91.4879 11.2598 91.1088 11.6728 90.8561 12.1526ZM93.8273 14.2141C93.7248 14.0325 93.6736 13.8423 93.6736 13.6435C93.6736 13.4584 93.7214 13.2802 93.817 13.1088C93.9127 12.9375 94.0766 12.7884 94.3088 12.6616C94.5411 12.5347 94.845 12.4336 95.2207 12.3582C95.5964 12.2828 96.0677 12.2451 96.6346 12.2451C96.9078 12.2451 97.2271 12.2554 97.5926 12.276C97.958 12.2965 98.3473 12.3325 98.7606 12.3839C99.1738 12.4354 99.6075 12.5056 100.062 12.5947C100.516 12.6838 100.975 12.7935 101.44 12.9237V13.4584C101.208 13.6777 100.917 13.8902 100.569 14.0959C100.221 14.3015 99.8312 14.4832 99.4009 14.6408C98.9706 14.7985 98.5061 14.9253 98.0075 15.0212C97.5089 15.1172 96.9932 15.1652 96.4604 15.1652C95.9618 15.1652 95.5366 15.1223 95.1848 15.0367C94.8331 14.951 94.5445 14.8379 94.3191 14.6974C94.0937 14.5568 93.9297 14.3958 93.8273 14.2141ZM109.804 1.50062H106.771V17.5711H109.804V14.6819L111.453 13.2014L115.951 17.5711H120.5L113.779 11.1141L120.1 5.43857H115.459L109.804 10.5898V1.50062Z" fill="#212121"/>
</svg>
