<svg width="179" height="90" viewBox="0 0 179 90" fill="none" xmlns="http://www.w3.org/2000/svg">
<path fill-rule="evenodd" clip-rule="evenodd" d="M89.8888 26.3977C90.6536 26.4322 91.3841 26.714 91.9627 27.1978C92.7511 27.9178 92.9578 29.1184 92.5847 30.079C91.134 32.9596 87.6839 34.8837 85.3264 35.5203C83.9159 35.8403 82.1329 35.8403 80.8469 35.3603C80.2243 35.7203 79.699 36.8838 78.9388 36.4003C77.8385 35.5713 78.791 34.2739 78.1558 33.3533C78.0248 33.1637 77.6949 33.1498 77.529 32.8396C76.6576 30.999 77.7363 29.2384 78.9388 27.8384C80.9436 25.6806 86.6953 23.2765 89.8888 26.3977ZM82.9383 28.7742C81.862 28.98 80.6465 29.4639 79.9894 30.2568C79.3317 31.0492 78.9136 31.8218 79.3121 32.6452C80.7071 31.5748 81.3845 30.0922 82.9389 29.1865C82.9383 29.0212 83.1774 28.8977 82.9383 28.7742ZM89.9835 28.7928C86.9884 28.5573 84.7316 30.5946 82.6049 32.5525C82.4747 32.8658 81.6937 33.2182 82.3011 33.5706C85.1661 33.8055 87.9002 33.0621 89.9835 31.3381C90.5916 30.829 91.0243 30.1633 90.7218 29.4579C90.5916 29.1844 90.2854 28.9103 89.9835 28.7928ZM115.609 41.8026C116.946 44.9809 118.074 49.9915 115.609 53.0476C114.94 53.7808 113.77 54.4567 113.018 53.9029C110.259 51.7442 109.09 48.6474 107.376 45.8764C107.126 45.7542 107.126 46.0807 107 46.2029C106.373 49.0139 107.543 52.681 105.58 54.8805C104.827 55.0027 104.124 54.6255 103.866 53.9029C102.904 51.0104 103.906 47.9951 104.157 45.1025C104.743 43.6356 104.993 41.9248 106.289 40.8245C108.379 41.6391 109.382 43.9213 110.593 45.5919C111.472 46.8546 112.181 48.2808 113.184 49.4213C114.061 49.0547 113.63 47.9366 113.602 47.2619C113.267 44.6137 112.515 42.1692 111.804 39.6432C111.763 38.9915 111.387 37.8912 112.096 37.4839C113.98 38.2991 114.772 40.2135 115.609 41.8026ZM102.485 39.6804C102.485 40.3065 102.003 41.0885 101.6 41.1822C97.7438 41.8077 93.4451 41.4324 89.8298 42.6834C89.7093 43.1421 90.2315 43.2255 90.5126 43.3506C93.6052 43.8511 96.8602 43.9762 99.8736 44.7691C101.467 45.1891 102.044 47.1472 102.164 48.7735C102.238 50.056 101.763 51.6098 100.557 52.4861C97.5849 54.4466 93.0452 54.3626 90.0312 52.5701C88.8793 51.8993 87.7815 50.8187 87.7011 49.4836C87.7081 48.4236 88.1435 47.589 88.8665 47.1895C91.7594 45.9796 95.3345 46.648 97.8259 48.1903C97.9853 49.0249 97.1157 48.9796 96.6995 49.2751C93.9271 50.9438 91.8386 47.3992 89.2675 48.6907C88.9061 48.9409 88.6447 49.639 89.0667 49.859C92.2402 51.3191 95.7758 50.276 98.9091 49.3585C99.2706 49.2334 99.713 48.8581 99.7525 48.4828C99.632 47.1478 98.1862 46.8565 97.2618 46.4812C94.5301 45.7723 91.5173 45.7723 88.5842 45.4804C88.0219 45.3553 87.3053 44.9486 87.1383 44.4796C86.817 43.4788 86.817 42.102 87.5399 41.268C91.2757 37.8474 96.9399 38.1399 101.68 39.0573C102.002 39.18 102.364 39.3051 102.485 39.6804ZM84.4356 42.0142C84.8358 46.0303 85.0581 49.7548 84.9692 53.9801C84.8802 54.5232 84.2133 54.6493 83.7688 54.8585C83.0574 54.984 82.138 54.8415 81.8564 54.482C80.8338 52.9332 81.1895 50.8424 81.1006 48.9595C81.2339 45.9897 81.1895 42.7677 82.0793 40.0058C82.2494 39.6045 82.7462 39.2529 83.1463 39.5033C84.2134 40.0058 84.3912 41.0103 84.4356 42.0142ZM130.438 41.1708C130.638 41.4943 130.848 41.994 130.438 42.2108C128.561 43.0109 126.017 42.6509 123.848 42.8909C123.264 43.3709 122.805 44.1709 123.013 44.8915C123.222 45.0115 123.409 45.1941 123.639 45.1709C124.973 45.2515 126.976 44.5709 127.853 45.7709C128.066 46.128 127.824 47.4614 127.227 47.4915C125.6 47.6927 122.924 47.2956 122.138 47.6927C121.137 48.3327 121.22 49.5727 120.845 50.5739C121.554 51.0139 122.297 50.5635 123.138 50.4533C124.682 50.2133 126.393 49.7733 127.935 50.0933C128.227 50.6133 128.644 51.1739 128.352 51.8139C125.722 53.8146 122.331 55.8651 118.718 54.4146C117.362 53.8314 116.758 51.8539 117.217 50.1745C117.508 48.9739 118.801 47.8139 118.009 46.5333C117.884 45.9727 118.218 45.4932 118.719 45.3732C120.095 45.3732 119.802 43.7326 120.512 42.972C119.719 42.132 117.718 42.172 117.926 40.4914C118.886 40.0114 120.054 40.1714 121.137 40.0114C123.598 39.5308 126.35 39.2508 128.854 39.5308C129.353 39.627 130.021 40.5708 130.438 41.1708ZM70.7916 31.9738C74.6845 35.1304 79.7351 40.5111 79.1025 46.7043C78.3427 51.6011 73.1119 55.2834 68.6823 56.4554C64.3793 57.7106 58.9797 57.585 54.5917 56.5809C54.2964 57.3765 54.0012 58.3381 53.0734 58.6734C52.4829 58.8826 51.7232 58.7571 51.2593 58.3806C49.9518 57.1667 51.0062 54.8232 49.1077 54.0707C45.3951 52.5221 41.3873 49.4667 39.4895 45.7008C39.2364 44.9477 39.5316 44.1946 39.9956 43.6089C42.9068 41.3072 46.5767 40.3868 50.2471 39.6749C50.4579 39.7586 50.3736 39.4658 50.5423 39.3821C50.7532 36.8712 50.8375 34.3179 51.6388 32.0581C51.8216 31.741 52.2715 31.6397 52.5673 31.8489C54.8875 33.6061 53.7904 36.9131 54.8032 39.2978C59.2327 39.507 63.6623 39.7162 67.1634 42.1858C68.3449 43.1481 68.6328 44.9859 68.2599 46.0361C67.8877 47.0844 66.6573 47.8357 65.518 47.9181C64.7582 47.9181 63.3243 47.9915 63.4086 47.4167C63.493 46.8413 65.9892 45.8996 65.2227 45.1144C64.1207 43.986 58.6068 43.3148 55.1895 42.8964C54.7677 42.8128 54.3808 42.9383 54.3808 43.3985C54.2964 46.5787 54.0434 50.0937 54.5917 53.1497C54.6338 53.3594 54.8869 53.6105 55.0984 53.6511C61.1306 54.614 67.5008 54.0695 72.2256 50.6382C74.4193 48.8816 75.1369 46.4108 74.7567 43.6913C72.8582 36.1169 64.8853 31.5548 58.3464 28.6256C51.9768 25.8637 44.9312 24.4406 37.3801 24.8178C36.1778 24.9051 34.2726 25.3168 34.2586 25.7388C34.2445 26.1608 36.4168 26.028 36.1565 26.8266C35.8967 27.6245 33.6889 27.151 33.0349 26.9521C32.3809 26.7532 32.4445 25.8219 32.6132 25.2362C34.2586 22.3488 38.8501 22.1153 40.924 22.0141C52.398 21.7206 63.4936 26.0553 70.7916 31.9738ZM50.7426 43.2903C47.8706 43.3283 44.8328 43.5938 42.1695 44.5044C41.6286 44.6941 40.9624 45.2253 41.3784 45.8708C42.4601 47.1987 44.0074 48.289 45.4569 49.0583C46.9065 49.8264 48.8282 50.8041 50.5762 51.0323C50.9922 48.5651 50.9922 46.1364 50.9506 43.5938C50.7836 43.518 50.95 43.3662 50.7426 43.2903ZM136.916 38.6564C136.792 42.2098 133.457 44.4162 133.457 47.9696C133.58 48.0921 133.664 48.2555 133.827 48.175C136.504 45.2744 139.138 41.1486 143.049 39.9235C144.08 39.8419 145.011 40.7302 145.396 41.3943C146.755 44.0901 146.427 47.8891 144.533 50.34C142.578 52.7458 139.18 55.1599 135.312 54.751C133.707 58.6725 132.593 62.7982 131.976 67.0873C131.647 67.9449 130.865 67.169 130.371 67.0056C127.037 64.3915 129.775 57.4711 130.001 56.588C130.227 55.7074 131.119 53.63 131.772 51.8906C130.207 49.1137 131.195 45.7632 132.471 43.1899C133.459 41.4742 134.819 39.7584 136.424 38.4516C136.628 38.4522 136.792 38.493 136.916 38.6564ZM143.662 42.3298C143.139 42.2456 142.921 42.9203 142.486 43.0467C140.483 45.2382 138.479 47.4297 137.477 50.0426C138.828 50.2111 139.96 49.3684 141.137 48.905C143.139 47.6825 144.403 45.6608 144.272 43.3422C144.184 42.9618 143.836 42.6669 143.662 42.3298Z" fill="#807E7E"/>
</svg>
