<svg width="179" height="90" viewBox="0 0 179 90" fill="none" xmlns="http://www.w3.org/2000/svg">
<path fill-rule="evenodd" clip-rule="evenodd" d="M20.5701 41.2853L29.6403 35.6426L38.7104 41.2382L29.6403 46.8809L38.6621 52.5705L47.7323 46.9279L38.6621 41.2853L47.7323 35.6426L38.6621 30L29.6403 35.6426L20.5701 30L11.5 35.6426L20.5701 41.2382L11.5 46.8809L20.5701 52.5705L29.6403 46.9279L20.5701 41.2853ZM29.592 48.7147L20.5219 54.3574L29.592 60L38.6621 54.3574L29.592 48.7147ZM122.69 51.1125L122.353 53.8339H118.888V34H122.835V41.6107C123.701 39.6734 125.434 38.6125 127.888 38.6125C131.594 38.6587 134.338 41.1033 134.338 46.0387V46.5C134.338 51.4354 131.739 54.2491 127.792 54.2491C125.193 54.203 123.508 53.0498 122.69 51.1125ZM54.7774 35.476H62.0933C66.762 35.476 70.6125 38.059 70.6125 43.9631V45.2085C70.6125 51.1587 67.0027 53.8339 62.2377 53.8339H54.7774V35.476ZM58.8685 38.797V50.4668H61.9971C64.6443 50.4668 66.4251 48.8063 66.4251 45.1162V44.1476C66.4251 40.4576 64.548 38.797 61.8527 38.797H58.8685ZM76.0513 38.9816H72.8265V53.8801H76.8695V47.0535C76.8695 43.917 77.6877 42.81 81.0088 42.81H82.6933V38.8432H81.6826C78.7947 38.8432 77.2064 40.0886 76.5807 42.441L76.0513 38.9816ZM83.5116 46.7306V46.3155C83.5116 41.3339 86.8326 38.6125 91.3569 38.6125C95.9775 38.6125 99.2022 41.3339 99.2022 46.3155V46.7306C99.2022 51.6199 96.0737 54.2491 91.3569 54.2491C86.3513 54.203 83.5116 51.6199 83.5116 46.7306ZM95.063 46.3155V46.6845C95.063 49.3598 93.6191 50.8358 91.3088 50.8819C88.9985 50.8819 87.5546 49.3598 87.5546 46.6845V46.3155C87.5546 43.4096 89.0466 41.8875 91.3088 41.8875C93.6191 41.8875 95.063 43.548 95.063 46.3155ZM101.32 38.9816H104.689L105.074 41.7952C105.892 39.9041 107.625 38.6125 110.176 38.6125C114.123 38.6125 116.722 41.3339 116.722 46.3616V46.7768C116.722 51.6661 113.834 54.2491 110.176 54.2491C107.721 54.2491 106.037 53.1882 105.219 51.4815V59H101.272L101.32 38.9816ZM112.631 46.3616V46.6845C112.631 49.452 111.187 50.8819 108.877 50.928C106.614 50.928 105.17 49.2675 105.17 46.6384V46.3616C105.17 43.5941 106.663 41.9336 108.925 41.9336C111.042 41.9336 112.631 43.4096 112.631 46.3616ZM126.492 41.8875C128.658 41.8875 130.199 43.4096 130.199 46.131V46.5C130.199 49.452 128.803 50.8819 126.444 50.8819C124.23 50.8819 122.738 49.2675 122.738 46.5V46.1771C122.738 43.5941 124.278 41.8875 126.492 41.8875ZM136.071 46.7306V46.3155C136.071 41.3339 139.392 38.6125 143.916 38.6125C148.536 38.6125 151.761 41.3339 151.761 46.3155V46.7306C151.761 51.6199 148.585 54.2491 143.916 54.2491C138.91 54.203 136.071 51.6199 136.071 46.7306ZM143.916 41.8875C146.226 41.8875 147.67 43.548 147.67 46.3155V46.6845C147.67 49.3598 146.226 50.8358 143.916 50.8819C141.606 50.8819 140.162 49.3598 140.162 46.6845V46.3155C140.162 43.4096 141.654 41.8875 143.916 41.8875ZM157.056 46.131L151.617 38.9816H156.285L159.414 43.4557L162.591 38.9816H167.211L161.676 46.0849L167.5 53.8339H162.928L159.366 48.8985L155.9 53.8339H151.135L157.056 46.131Z" fill="#807E7E"/>
</svg>
