<svg width="179" height="90" viewBox="0 0 179 90" fill="none" xmlns="http://www.w3.org/2000/svg">
<path fill-rule="evenodd" clip-rule="evenodd" d="M45.9393 26H44.8996C41.957 26.1765 39.0733 27.1371 36.6996 28.8821C34.2278 30.6466 32.3054 33.1757 31.3049 36.0382C30.2063 39.1751 30.2259 42.7042 31.403 45.8215C32.6585 49.2133 35.2087 52.0954 38.4063 53.8011C41.0742 55.2519 44.1738 55.8205 47.1752 55.5264C50.2747 55.2715 53.3154 53.9776 55.5125 51.7817C58.8082 48.684 59.8283 43.8021 59.1221 39.4692H45.4096V43.508C47.5804 43.5211 49.7511 43.5167 51.9218 43.5124H51.9225C53.008 43.5102 54.0935 43.508 55.179 43.508C54.9436 45.5078 54.2178 47.5664 52.6484 48.9192C50.6474 50.8406 47.7833 51.6837 45.0369 51.5268C42.0943 51.4288 39.2498 50.0172 37.3862 47.7625C35.4441 45.449 34.6006 42.3121 35.0125 39.332C35.3853 36.3127 37.1116 33.4894 39.6618 31.8229C41.9962 30.2349 44.9977 29.7055 47.7833 30.2937C49.6666 30.6466 51.3929 31.6465 52.8249 32.9405C53.3516 32.3917 53.891 31.8558 54.4323 31.318L54.4323 31.318L54.4324 31.3179L54.4324 31.3179C54.8387 30.9142 55.2461 30.5095 55.6498 30.0976C53.0996 27.5293 49.5489 26.0784 45.9393 26ZM127.626 27.518H123.832C123.832 30.6386 123.834 33.7592 123.836 36.879C123.84 43.1165 123.844 49.3511 123.832 55.5769C124.777 55.6065 125.731 55.6027 126.681 55.5991H126.681H126.681H126.681C126.997 55.5978 127.312 55.5966 127.626 55.5966V27.518ZM76.5704 38.4004C74.363 36.858 71.467 36.3113 68.7938 36.7994C65.432 37.3656 62.4551 39.7671 61.402 42.9106C60.3489 45.8393 60.8147 49.2757 62.7386 51.7748C64.4397 54.0397 67.2344 55.4259 70.1101 55.5821C73.2491 55.7774 76.4691 54.4888 78.4335 52.0872C80.2561 49.9395 80.9447 46.9718 80.3979 44.2578C79.9726 41.9149 78.5753 39.7671 76.5704 38.4004ZM66.5661 42.2468C67.2952 41.3877 68.3078 40.7824 69.4013 40.5091C71.143 40.0795 73.0669 40.5677 74.3832 41.7391C76.4286 43.5549 76.8134 46.757 75.4768 49.0804C74.7072 50.4471 73.3099 51.482 71.71 51.7553C69.9886 52.0872 68.1255 51.521 66.8902 50.3105C64.7232 48.2018 64.6017 44.5116 66.5661 42.2468ZM89.2808 36.8009C92.3411 36.2344 95.6851 37.0548 97.9752 39.1253C101.704 42.3483 102.11 48.384 98.9277 52.0952C97.0024 54.4392 93.8813 55.7284 90.8008 55.5916C87.8622 55.5135 84.9641 54.1071 83.2211 51.7827C81.2553 49.2239 80.8297 45.7079 81.9443 42.7194C83.059 39.6722 85.9774 37.3478 89.2808 36.8009ZM89.8888 40.5122C88.7944 40.7856 87.7811 41.3912 87.0515 42.2311C85.1059 44.4578 85.187 48.091 87.2744 50.2201C88.5107 51.4897 90.436 52.1148 92.2195 51.7632C93.8003 51.4702 95.2189 50.4545 95.9891 49.0872C97.3064 46.7432 96.9213 43.5398 94.8541 41.7232C93.5368 40.5512 91.6115 40.0824 89.8888 40.5122ZM114.833 37.364C112.409 36.1269 109.417 36.5259 107.169 37.9626C104.451 39.6587 102.652 42.7914 102.593 46.0439C102.476 48.9172 103.727 51.8105 105.839 53.6861C107.931 55.5618 110.923 56.5196 113.64 55.7414C114.892 55.4421 115.928 54.6439 116.828 53.746C116.886 55.6017 116.886 57.6769 115.674 59.1934C114.54 60.6699 112.526 61.1089 110.786 60.7897C109.046 60.4704 107.657 59.0736 106.973 57.4374C106.514 57.6416 106.051 57.8343 105.591 58.0264L105.591 58.0264C104.836 58.3412 104.084 58.6544 103.356 59.0138C104.529 61.8672 107.169 64.1219 110.199 64.5809C113.034 65.0199 116.182 64.3614 118.235 62.2263C120.112 60.2908 120.777 57.4773 120.797 54.8235V37.2243C120.132 37.2143 119.472 37.2143 118.815 37.2143C118.157 37.2143 117.502 37.2143 116.847 37.2044C116.837 37.4837 116.837 37.7631 116.837 38.0399C116.837 38.3168 116.837 38.5911 116.828 38.8605C116.221 38.2819 115.596 37.7032 114.833 37.364ZM108.146 42.3325C108.909 41.3946 110.023 40.7162 111.216 40.5167C112.839 40.2174 114.559 40.8359 115.635 42.093C117.375 44.1283 117.59 47.3009 116.3 49.6355C115.537 51.0123 114.11 52.01 112.565 52.1697C110.923 52.3492 109.222 51.6309 108.166 50.3339C106.308 48.139 106.308 44.5673 108.146 42.3325ZM133.612 38.9413C135.948 36.755 139.549 36.0132 142.547 37.165C145.388 38.2386 147.199 40.952 148.113 43.7435C146.002 44.6215 143.896 45.4946 141.79 46.3678L141.788 46.3689C139.68 47.2425 137.573 48.1161 135.461 48.9946C136.045 50.1072 136.941 51.1223 138.148 51.5323C139.841 52.1374 141.865 51.9227 143.286 50.7905C143.851 50.361 144.298 49.7949 144.727 49.2483C145.261 49.6091 145.796 49.965 146.331 50.3209L146.332 50.322C146.868 50.6782 147.403 51.0345 147.938 51.3956C146.42 53.6796 143.87 55.2803 141.126 55.534C138.089 55.9049 134.858 54.7337 132.892 52.3521C129.661 48.6041 129.972 42.3184 133.612 38.9413ZM135.695 42.5527C135.033 43.5092 134.761 44.6805 134.78 45.8322L134.782 45.8316C137.603 44.6606 140.425 43.4895 143.247 42.2989C142.78 41.2058 141.651 40.5421 140.503 40.3664C138.654 40.0345 136.727 41.0301 135.695 42.5527Z" fill="#807E7E"/>
</svg>
