<svg xmlns="http://www.w3.org/2000/svg" width="179" height="90" fill="none" viewBox="0 0 179 90"><path fill="#807E7E" fill-rule="evenodd" d="M44.4741 59.7824C42.6171 60.104 40.7275 60.2004 38.7727 60.4572L32.8104 43.2346V61.1964C30.9535 61.3891 29.2593 61.6462 27.5 61.9032V29H32.4523L39.2288 47.669V29H44.4741V59.7824ZM54.7368 41.0495C56.7569 41.0495 59.852 40.9531 61.709 40.9531V46.0941C59.3957 46.0941 56.6917 46.0941 54.7368 46.1905V53.8381C57.7995 53.6454 60.862 53.3881 63.9569 53.2917V58.2397L49.5239 59.3646V29H63.9569V34.1411H54.7368V41.0495ZM83.3419 34.1413H77.9337V57.7904C76.1744 57.7904 74.4151 57.7904 72.7212 57.8545V34.1413H67.313V29H83.3422L83.3419 34.1413ZM91.8127 40.6962H98.9478V45.8372H91.8127V57.5013H86.6973V29H101.261V34.1411H91.8127V40.6962ZM109.732 53.0026C112.697 53.0667 115.694 53.292 118.593 53.4524V58.5293C113.935 58.24 109.276 57.9512 104.519 57.8545V29H109.732V53.0026ZM122.992 58.8828C124.653 58.9794 126.413 59.0758 128.107 59.2683V29H122.992V58.8828ZM150.945 29L144.332 44.6484L150.945 61.9032C148.99 61.6462 147.036 61.2927 145.081 60.9713L141.334 51.4604L137.523 60.2004C135.633 59.8788 133.808 59.7824 131.919 59.5253L138.63 44.4554L132.57 29H138.174L141.595 37.6435L145.244 29H150.945Z" clip-rule="evenodd"/></svg>